<?xml version="1.0" encoding="UTF-8"?>
<!DOCTYPE svg PUBLIC "-//W3C//DTD SVG 1.1//EN" "http://www.w3.org/Graphics/SVG/1.1/DTD/svg11.dtd">
<svg xmlns="http://www.w3.org/2000/svg" version="1.1" width="512px" height="512px" style="shape-rendering:geometricPrecision; text-rendering:geometricPrecision; image-rendering:optimizeQuality; fill-rule:evenodd; clip-rule:evenodd" xmlns:xlink="http://www.w3.org/1999/xlink">
<g><path style="opacity:1" fill="#fefffe" d="M 127.5,56.5 C 159.182,53.0994 184.348,64.0994 203,89.5C 214.785,108.498 217.952,128.831 212.5,150.5C 192.41,162.254 178.076,178.921 169.5,200.5C 132.105,213.448 101.272,204.448 77,173.5C 60.0839,144.647 60.4172,115.981 78,87.5C 90.6712,70.9213 107.171,60.588 127.5,56.5 Z"/></g>
<g><path style="opacity:1" fill="#fefffe" d="M 360.5,56.5 C 397.825,53.9016 424.658,69.235 441,102.5C 453.417,140.241 443.917,171.075 412.5,195C 389.784,207.945 366.118,209.945 341.5,201C 334.266,184.101 323.6,169.768 309.5,158C 306.167,156 302.833,154 299.5,152C 290.506,115.317 301.84,86.6507 333.5,66C 342.164,61.5029 351.164,58.3362 360.5,56.5 Z"/></g>
<g><path style="opacity:1" fill="#fefffe" d="M 244.5,155.5 C 282.176,153.081 309.009,168.747 325,202.5C 335.946,234.779 329.446,262.946 305.5,287C 279.427,307.44 251.094,311.107 220.5,298C 185.854,277.187 173.354,247.02 183,207.5C 190.192,185.641 204.359,170.141 225.5,161C 231.828,158.673 238.162,156.84 244.5,155.5 Z"/></g>
<g><path style="opacity:1" fill="#fefffe" d="M 67.5,189.5 C 72.5734,193.066 77.2401,197.232 81.5,202C 105.937,221.107 133.27,226.94 163.5,219.5C 162.692,238.13 166.359,255.796 174.5,272.5C 155.525,288.644 140.025,307.644 128,329.5C 123.893,338.711 119.56,347.711 115,356.5C 77.4777,354.107 40.6443,347.774 4.5,337.5C 3.37359,289.044 17.8736,246.044 48,208.5C 54.3952,201.937 60.8952,195.603 67.5,189.5 Z"/></g>
<g><path style="opacity:1" fill="#fefffe" d="M 441.5,189.5 C 452.438,197.27 461.938,206.604 470,217.5C 495.151,253.459 507.317,293.459 506.5,337.5C 469.54,348.383 431.873,354.383 393.5,355.5C 381.306,322.756 361.973,295.09 335.5,272.5C 343.35,255.741 347.017,238.075 346.5,219.5C 384.41,228.75 416.077,218.75 441.5,189.5 Z"/></g>
<g><path style="opacity:1" fill="#fefffe" d="M 182.5,288.5 C 191.8,298.281 202.466,306.447 214.5,313C 257.351,330.495 294.518,322.328 326,288.5C 359.169,316.138 379.502,351.471 387,394.5C 389.671,408.376 390.838,422.376 390.5,436.5C 311.549,458.613 231.883,461.446 151.5,445C 141.029,442.632 130.696,439.799 120.5,436.5C 118.408,377.397 139.074,328.064 182.5,288.5 Z"/></g>
</svg>
